<svg width="22" height="18" viewBox="0 0 22 18" fill="none" xmlns="http://www.w3.org/2000/svg">
<path fill-rule="evenodd" clip-rule="evenodd" d="M2.42631 8.2834L2.59531 8.1164L9.61931 1.1824C9.88331 0.913397 9.88031 0.487397 9.61331 0.214397C9.48131 0.0793967 9.30431 0.00339673 9.11431 0.000396729C8.90531 0.00839673 8.73831 0.0733967 8.6083 0.196397L0.207305 8.4894C-0.0686948 8.7624 -0.0686948 9.2074 0.207305 9.4814L8.61431 17.7794C8.76731 17.9254 8.9173 17.9874 9.15131 18.0004C9.3343 17.9964 9.51031 17.9204 9.64231 17.7854C9.77431 17.6514 9.84531 17.4734 9.84231 17.2854C9.83831 17.0984 9.7613 16.9234 9.62531 16.7934L2.42631 9.6864H21.2893C21.6813 9.6864 21.9993 9.3724 21.9993 8.9854C21.9993 8.5984 21.6813 8.2834 21.2893 8.2834H2.42631Z" fill="#979595"/>
</svg>
