<svg width="18" height="18" viewBox="0 0 18 18" fill="none" xmlns="http://www.w3.org/2000/svg">
<path fill-rule="evenodd" clip-rule="evenodd" d="M9.955 9L17.802 1.153C18.065 0.889 18.065 0.461 17.802 0.198C17.538 -0.066 17.11 -0.066 16.846 0.198L8.999 8.044L1.153 0.198C0.889 -0.066 0.461 -0.066 0.198 0.198C-0.066 0.461 -0.066 0.889 0.198 1.153L8.044 9L0.198 16.846C-0.066 17.11 -0.066 17.538 0.198 17.802C0.461 18.066 0.889 18.066 1.153 17.802L8.999 9.955L16.846 17.802C17.11 18.066 17.538 18.066 17.802 17.802C18.065 17.538 18.065 17.11 17.802 16.846L9.955 9Z" fill="#286140"/>
</svg>
