<svg width="22" height="22" viewBox="0 0 22 22" fill="none" xmlns="http://www.w3.org/2000/svg">
<path fill-rule="evenodd" clip-rule="evenodd" d="M10.8777 6.03061C8.90472 6.03061 7.98572 7.17761 7.98572 7.95261C7.98572 8.49861 8.45772 8.69661 8.77472 8.69661C9.05472 8.69661 9.16072 8.53961 9.32272 8.30161C9.56072 7.95161 9.85672 7.51561 10.8307 7.51561C11.7497 7.51561 12.3437 7.97661 12.3437 8.68861C12.3437 9.43061 11.7267 9.90461 11.2317 10.2836C11.1247 10.3656 11.0227 10.4446 10.9317 10.5216C10.4457 10.9396 9.94972 11.5316 9.94972 12.7506C9.94972 13.5116 10.1367 13.6466 10.6627 13.6466C11.1837 13.6466 11.4367 13.4846 11.4367 13.1496C11.4367 12.2896 11.4777 11.8086 12.3467 11.1316C13.7247 10.0596 14.0147 9.07061 14.0147 8.42861C14.0147 7.01661 12.7247 6.03061 10.8777 6.03061Z" fill="#286140"/>
<path fill-rule="evenodd" clip-rule="evenodd" d="M10.6775 14.9662C10.1075 14.9662 9.64349 15.4372 9.64349 16.0162C9.64349 16.5942 10.1075 17.0652 10.6775 17.0652C11.2465 17.0652 11.7285 16.5852 11.7285 16.0162C11.7285 15.4472 11.2465 14.9662 10.6775 14.9662Z" fill="#286140"/>
<path fill-rule="evenodd" clip-rule="evenodd" d="M19.7522 14.8134C19.7522 15.5704 19.3442 16.2754 18.6882 16.6534L12.0632 20.4704C11.7352 20.6594 11.3672 20.7534 11.0002 20.7534C10.6322 20.7534 10.2652 20.6594 9.93718 20.4704L3.31218 16.6534C2.65518 16.2754 2.24818 15.5704 2.24818 14.8134V7.1874C2.24818 6.4294 2.65518 5.7254 3.31218 5.3464L9.93718 1.5304C10.5922 1.1524 11.4062 1.1524 12.0632 1.5304L18.6882 5.3474C19.3442 5.7254 19.7522 6.4294 19.7522 7.1874V14.8134ZM19.3112 4.2664L12.6862 0.449397C12.1662 0.149397 11.5832 0.000396729 11.0002 0.000396729C10.4172 0.000396729 9.83418 0.149397 9.31418 0.449397L2.68918 4.2664C1.64718 4.8664 1.00018 5.9854 1.00018 7.1874V14.8134C1.00018 16.0154 1.64718 17.1344 2.68918 17.7344L9.31418 21.5514C10.3552 22.1494 11.6462 22.1494 12.6862 21.5514L19.3112 17.7344C20.3532 17.1344 21.0002 16.0154 21.0002 14.8134V7.1874C21.0002 5.9854 20.3532 4.8664 19.3112 4.2664Z" fill="#5C5A5A"/>
</svg>
